<svg width="33" height="32" viewBox="0 0 33 32" fill="none" xmlns="http://www.w3.org/2000/svg">
<g clip-path="url(#clip0_51_857)">
<path d="M0.00439662 18.014C0.00439662 15.4042 0.0122447 12.7948 3.61793e-05 10.1849C-0.00388798 9.25204 0.311353 8.48292 0.9741 7.83178C3.39807 5.44882 5.81651 3.05984 8.22943 0.664852C8.69118 0.208307 9.24797 -0.00169588 9.89023 0.000505403C10.6541 0.000505403 11.4163 0.000505403 12.1815 0.000505403C14.6595 0.000505403 17.1374 0.000505403 19.6152 0.000505403C22.6869 0.00358719 25.1596 2.08116 25.7194 5.12949C25.8424 5.79603 25.7918 6.47051 25.8005 7.1419C25.8031 7.34838 25.8005 7.55442 25.8005 7.7609C25.8005 8.22977 25.8005 8.23637 25.3466 8.2892C24.8561 8.3482 24.373 8.32398 23.9051 8.1382C23.7695 8.08404 23.7198 8.01052 23.7225 7.85995C23.732 7.31316 23.7294 6.76592 23.7255 6.21912C23.7089 3.86243 21.9466 2.09612 19.6165 2.097C16.4283 2.097 13.24 2.097 10.0516 2.097C9.61292 2.097 9.59591 2.11506 9.59591 2.54827C9.59591 3.35526 9.59025 4.16224 9.59591 4.96967C9.61161 6.77472 8.75702 8.07172 7.27761 8.99009C6.5826 9.42154 5.80823 9.60293 4.99462 9.62406C4.11604 9.64695 3.23747 9.6857 2.35846 9.69626C2.13696 9.69934 2.08028 9.7918 2.08028 9.97935C2.08028 10.1141 2.08028 10.2488 2.08028 10.3831V25.7203C2.08028 28.1003 3.80822 29.8882 6.16402 29.8956C10.6669 29.9097 15.1697 29.9097 19.6723 29.8956C21.9832 29.8877 23.7094 28.11 23.7251 25.7731C23.729 25.1902 23.7351 24.6069 23.7203 24.0244C23.7155 23.8272 23.7787 23.7629 23.9649 23.7351C24.5012 23.6471 25.0494 23.6669 25.5781 23.7933C25.7399 23.8333 25.8123 23.8919 25.8053 24.0759C25.7735 24.9445 25.8489 25.8145 25.7464 26.6827C25.4425 29.2929 23.2284 31.5735 20.6516 31.9287C20.3175 31.9751 19.9807 31.9985 19.6435 31.9987C15.1493 31.9987 10.6554 31.9987 6.16184 31.9987C3.21872 31.9952 0.77702 30.0132 0.140434 27.1242C0.041445 26.6412 -0.00446921 26.1487 0.0035244 25.6555C0.00584983 23.1079 0.00614069 20.5608 0.00439662 18.014Z" fill="white"/>
<path d="M24.6651 22.5191C23.6474 22.5561 22.7187 22.7586 21.9766 23.4903C21.8227 23.6417 21.6334 23.6386 21.459 23.5343C20.9171 23.2107 20.3795 22.8796 19.8427 22.5472C19.6557 22.431 19.5868 22.2589 19.6404 22.0392C20.1449 19.9673 18.5883 17.7194 17.0583 17.2589C16.7928 17.1788 16.6768 16.9947 16.6855 16.7125C16.7025 16.1569 16.7047 15.6013 16.7208 15.0457C16.7322 14.642 16.8054 14.554 17.1691 14.4135C18.6284 13.8504 19.4847 12.7564 19.858 11.2538C19.9783 10.7695 19.95 10.2738 19.8654 9.78511C19.8183 9.51391 19.9182 9.33913 20.1492 9.21278C20.6402 8.94378 21.1312 8.67346 21.6156 8.39258C21.8746 8.24245 22.0952 8.26491 22.3189 8.46346C22.9938 9.06001 23.7712 9.43951 24.6768 9.45888C25.7041 9.48045 26.693 9.32196 27.5288 8.63648C27.9108 8.32346 28.0355 8.32566 28.4576 8.58497C28.8971 8.85485 29.3361 9.12561 29.7804 9.38756C30.0229 9.5302 30.114 9.73272 30.0394 9.99819C29.6091 11.5246 30.6673 14.0428 32.605 14.7138C32.894 14.8142 33.0096 14.9907 32.9996 15.2958C32.9817 15.8333 32.9882 16.3713 32.9804 16.9089C32.9734 17.3571 32.8971 17.4469 32.4772 17.5658C31.9418 17.7176 31.497 18.0236 31.1133 18.4207C30.3664 19.1934 29.8925 20.1078 29.7551 21.1869C29.7179 21.499 29.7372 21.8155 29.8123 22.1206C29.8929 22.4632 29.8271 22.6256 29.5332 22.7938C29.0475 23.0725 28.5574 23.3441 28.0678 23.6157C27.8371 23.7439 27.6034 23.7632 27.4072 23.5594C26.6455 22.7691 25.6714 22.5675 24.6651 22.5191ZM24.8395 11.7971C22.5582 11.8002 20.6864 13.6937 20.6895 15.9954C20.6925 18.297 22.5578 20.1857 24.8212 20.1853C27.1247 20.1853 28.9965 18.3023 28.9978 15.9852C28.9991 13.6862 27.1203 11.7936 24.8399 11.7971H24.8395Z" fill="white"/>
</g>
<defs>
<clipPath id="clip0_51_857">
<rect width="33" height="32" fill="white"/>
</clipPath>
</defs>
</svg>
