<svg width="29" height="31" viewBox="0 0 29 31" fill="none" xmlns="http://www.w3.org/2000/svg">
<g clip-path="url(#clip0_51_1104)">
<path d="M18.22 3.70557e-05C19.4158 1.23417 20.6121 2.46804 21.8087 3.70164C22.2041 4.10835 22.5544 4.58931 23.0184 4.89233C24.3582 5.76831 24.316 7.08892 24.1653 8.40066C24.1191 8.80415 23.6616 9.1568 23.3924 9.53285L23.1915 9.45538V6.8093C21.7955 6.8093 20.4922 6.81253 19.1886 6.8093C17.9155 6.80527 17.4149 6.311 17.4041 5.03396C17.394 3.89773 17.3884 2.76111 17.4077 1.62488C17.4149 1.18871 17.3237 0.968409 16.8183 0.970426C12.7808 0.986835 8.74335 0.986835 4.70586 0.970426C3.94457 0.967198 3.91042 1.41426 3.91162 1.98318C3.91966 6.21981 3.89314 10.4564 3.93452 14.6906C3.94336 15.5541 3.814 16.2586 2.94303 16.8025V15.9753C2.94303 11.3005 2.96151 6.62531 2.92616 1.9505C2.91973 1.09268 3.14952 0.453558 3.86824 -0.000366211L18.22 3.70557e-05ZM22.19 5.76669L18.3767 1.92871C18.3767 3.0036 18.353 4.12974 18.4008 5.25265C18.4084 5.43099 18.7314 5.73683 18.919 5.74369C20.017 5.7905 21.1185 5.76669 22.19 5.76669Z" fill="#4D4D4D"/>
<path d="M0.935139 31C0.220443 30.5033 -0.0555523 29.8298 0.00912787 28.9543C0.0975107 27.7487 0.0372496 26.5285 0.181073 25.3314C0.301595 24.3226 0.90782 23.5282 1.74304 22.9391C2.87916 22.1386 3.15315 22.1616 4.39814 23.1981C4.22459 23.2207 4.11692 23.2433 4.01126 23.2477C2.25204 23.3204 1.10146 24.4788 1.06008 26.2537C1.03678 27.26 1.07173 28.2683 1.04602 29.2746C1.03276 29.8068 1.24689 30.0247 1.76915 30.0239C4.95763 30.0175 8.1461 30.0175 11.3346 30.0239C11.9067 30.0239 12.0979 29.7633 12.0762 29.2113C12.0457 28.3858 12.0694 27.557 12.0682 26.7323C12.0649 24.4352 11.0763 23.3672 8.81406 23.2159C9.70793 22.1668 10.1057 22.097 11.2362 22.8426C12.4454 23.6399 13.0251 24.8137 13.0942 26.2319C13.1456 27.2879 13.0942 28.349 13.1099 29.4074C13.1219 30.1309 12.6828 30.5723 12.2023 31.0004L0.935139 31Z" fill="#4D4D4D"/>
<path d="M13.5901 31C13.7355 30.1463 14.2682 29.9857 15.0665 30.0034C17.4275 30.0559 19.7905 30.0244 22.1524 30.0212C23.1113 30.0212 23.1676 29.9619 23.168 29.029C23.168 26.9918 23.1398 24.9538 23.1824 22.9178C23.1989 22.1108 23.3488 21.3038 23.4986 20.5069C23.5303 20.3391 23.828 20.2221 24.1494 19.9642C24.1739 20.4307 24.2 20.6982 24.2004 20.9661C24.2033 23.5706 24.1751 26.1755 24.2169 28.7792C24.2318 29.6843 24.0486 30.4376 23.313 30.9984L13.5901 31Z" fill="#4D4D4D"/>
<path d="M24.5599 16.8457C24.9921 16.9429 25.3027 16.9667 25.569 17.0878C25.8013 17.1935 26.0789 17.3767 26.1528 17.5901C26.1994 17.7233 25.9491 18.0678 25.7571 18.1594C24.58 18.7215 23.382 19.2392 22.1892 19.7681C22.0558 19.8275 21.9128 19.8654 21.6694 19.9489C21.8682 20.074 22.0068 20.1272 22.0976 20.2253C22.2583 20.3988 22.5395 20.6465 22.4994 20.7781C22.4315 20.9964 22.178 21.2344 21.951 21.3127C20.3529 21.8639 18.7415 22.3759 17.1349 22.9024C16.4315 23.1328 16.141 23.6206 16.5323 24.2396C17.4141 25.6361 17.3358 26.7929 15.9486 27.7758C15.896 27.8129 15.8751 27.8968 15.7758 28.0663C16.8143 28.0663 17.7765 28.0695 18.7383 28.0663C19.1432 28.0663 19.6104 28.0832 19.547 28.6057C19.5229 28.8018 19.0376 29.0702 18.7531 29.0823C17.5218 29.1351 16.2864 29.1085 15.0527 29.104C14.0805 29.1008 13.9158 28.8946 14.1154 27.9456C14.8896 24.2594 16.276 20.8095 18.1565 17.5611C20.5706 13.3934 23.717 9.89761 27.6939 7.18213C27.9646 6.99693 28.423 6.77864 28.6275 6.89001C28.8505 7.01105 28.9621 7.48959 28.979 7.82005C29.1064 10.308 28.652 12.695 27.6055 14.9537C27.4681 15.2499 27.1724 15.5226 26.8823 15.6869C26.1733 16.0887 25.4244 16.4208 24.5599 16.8457ZM20.6325 20.7135C20.2404 20.5295 19.9736 20.4625 19.7888 20.3007C19.6241 20.1559 19.4108 19.7859 19.463 19.7246C19.6546 19.5062 19.9008 19.3433 20.1761 19.2525C21.4809 18.8337 22.7966 18.4479 24.1083 18.0509C24.089 17.9702 24.0681 17.8895 24.0501 17.8068C23.7287 17.7305 23.388 17.6974 23.0923 17.5647C22.869 17.4638 22.603 17.2621 22.5472 17.0539C22.5094 16.9139 22.7681 16.6177 22.9601 16.5063C23.47 16.2114 23.9914 15.8902 24.5506 15.7373C26.4999 15.2047 27.2965 13.7848 27.6039 11.9445C27.644 11.6907 27.7344 11.4434 27.7593 11.1888C27.8513 10.2454 27.9261 9.30004 28.0245 8.14929C23.0296 11.7662 19.5779 16.2433 17.1671 21.7501C17.4792 21.7037 17.609 21.7021 17.7239 21.6645C18.6503 21.3651 19.5731 21.0605 20.6325 20.7135Z" fill="#4D4D4D"/>
<path d="M6.58501 15.9712C8.44788 15.9809 9.94155 17.5005 9.94115 19.3848C9.94115 21.288 8.39846 22.8039 6.48618 22.7789C4.67835 22.7555 3.16861 21.2283 3.15174 19.4037C3.13527 17.5235 4.69723 15.9608 6.58501 15.9712ZM6.55006 16.9941C5.1982 16.9941 4.1585 18.0468 4.16935 19.4001C4.17939 20.7122 5.20945 21.7431 6.52314 21.7557C7.87178 21.7686 8.95246 20.7183 8.95889 19.388C8.96532 18.0577 7.89589 16.9921 6.55006 16.9941Z" fill="#4D4D4D"/>
<path d="M13.593 11.9073H7.7392C7.55962 11.9073 7.35032 11.9646 7.20649 11.892C6.96183 11.7689 6.75815 11.5636 6.5376 11.3929C6.75132 11.2174 6.953 11.0229 7.1848 10.876C7.2768 10.8179 7.43549 10.8651 7.56404 10.8651H19.5025C19.6564 10.8651 19.8428 10.8123 19.9577 10.8804C20.171 11.0063 20.3434 11.2032 20.5326 11.3707C20.3502 11.5474 20.1907 11.7633 19.9774 11.8863C19.8412 11.9646 19.6263 11.9073 19.4467 11.9073H13.593Z" fill="#4D4D4D"/>
<path d="M13.5892 8.95749H19.218C19.3465 8.95749 19.4759 8.947 19.6032 8.9595C19.9821 8.99703 20.5297 8.81546 20.5172 9.4675C20.5056 10.0606 19.9949 9.92223 19.637 9.92384C17.3242 9.93272 15.011 9.92868 12.6977 9.92868C10.9755 9.92868 9.25362 9.93231 7.53176 9.92546C7.13967 9.92546 6.58567 10.0546 6.56759 9.46023C6.54911 8.855 7.10391 8.96193 7.49802 8.96071C9.52841 8.95426 11.5588 8.95789 13.5892 8.95749Z" fill="#4D4D4D"/>
<path d="M20.1136 12.8753C19.8324 13.6222 19.384 13.8287 18.6673 13.8211C14.9713 13.7831 11.2753 13.8037 7.58133 13.8021C7.35113 13.8021 7.09924 13.8425 6.89837 13.7585C6.7449 13.6948 6.56814 13.4664 6.56934 13.3123C6.57055 13.1581 6.76097 12.977 6.91363 12.8777C7.02652 12.8043 7.21213 12.8345 7.36519 12.8345C11.4972 12.8329 15.6288 12.8329 19.7601 12.8345C19.8785 12.8421 19.9965 12.8557 20.1136 12.8753Z" fill="#4D4D4D"/>
<path d="M18.6725 14.8435C18.4652 15.4915 18.1273 15.8216 17.358 15.8022C15.1223 15.7465 12.8846 15.7735 10.6489 15.7869C9.74941 15.7921 8.87322 15.8006 8.04322 15.3301C7.65675 15.111 7.16863 15.0731 6.72632 14.8435H18.6725Z" fill="#4D4D4D"/>
<path d="M10.1089 16.7568H17.437C17.2948 17.4524 16.9618 17.72 16.2607 17.6962C14.6453 17.6417 13.0255 17.6385 11.4101 17.6962C10.7047 17.7228 10.2861 17.5235 10.1089 16.7568Z" fill="#4D4D4D"/>
<path d="M16.3966 18.6617C16.2592 19.3759 15.9656 19.7108 15.2018 19.6765C13.7958 19.6099 12.3877 19.6576 10.9109 19.6576C10.8787 19.3041 10.8518 19.0091 10.8201 18.6617H16.3966Z" fill="#4D4D4D"/>
<path d="M6.58249 24.0366C6.793 24.3296 7.0465 24.5281 7.03003 24.7008C7.01275 24.8815 6.73595 25.0373 6.57285 25.2043C6.4013 25.0236 6.13093 24.8618 6.09076 24.6552C6.06465 24.5135 6.3543 24.3094 6.58249 24.0366Z" fill="#4D4D4D"/>
<path d="M6.57679 25.9802C6.79333 26.2861 7.04722 26.4898 7.02312 26.6512C6.9962 26.8275 6.70896 27.0878 6.54103 27.0834C6.37311 27.0789 6.10555 26.7981 6.09108 26.6206C6.07742 26.4576 6.34217 26.2711 6.57679 25.9802Z" fill="#4D4D4D"/>
</g>
<defs>
<clipPath id="clip0_51_1104">
<rect width="29" height="31" fill="white"/>
</clipPath>
</defs>
</svg>
