<?xml version="1.0" standalone="no"?>
<!DOCTYPE svg PUBLIC "-//W3C//DTD SVG 20010904//EN"
 "http://www.w3.org/TR/2001/REC-SVG-20010904/DTD/svg10.dtd">
<svg version="1.0" xmlns="http://www.w3.org/2000/svg"
 width="600.000000pt" height="600.000000pt" viewBox="0 0 600.000000 600.000000"
 preserveAspectRatio="xMidYMid meet">

<g transform="translate(0.000000,600.000000) scale(0.100000,-0.100000)"
fill="#000000" stroke="none">
<path d="M3645 4285 c-155 -29 -288 -94 -399 -196 -120 -111 -203 -242 -257
-404 -13 -38 -24 -71 -25 -73 -1 -1 -23 11 -50 27 -97 60 -113 61 -725 61
-526 0 -557 -1 -572 -18 -16 -17 -17 -93 -17 -884 0 -819 1 -866 18 -881 16
-15 79 -17 597 -19 576 -3 580 -3 620 -25 22 -12 54 -33 70 -47 l30 -25 -651
-1 c-618 0 -652 -1 -667 -18 -22 -24 -21 -45 1 -65 17 -16 127 -17 1384 -17
1310 0 1366 1 1381 18 22 24 21 45 -1 65 -17 15 -78 17 -668 17 l-649 1 35 29
c19 16 59 39 88 50 51 19 75 20 616 20 533 0 564 1 579 18 16 17 17 93 17 884
0 825 -1 866 -18 881 -15 14 -42 17 -150 17 l-132 0 0 133 c0 177 4 173 -157
157 -65 -6 -124 -13 -130 -15 -10 -3 -13 30 -13 144 0 194 -1 195 -155 166z
m55 -895 l0 -800 -22 0 c-50 0 -159 -35 -255 -81 -81 -39 -117 -64 -185 -128
-45 -43 -105 -113 -133 -155 l-50 -77 -3 708 c-2 700 -2 708 19 773 91 276
254 454 489 534 41 14 90 26 108 26 l32 0 0 -800z m298 -292 l-3 -802 -111
-13 c-289 -32 -570 -121 -743 -235 -42 -27 -40 -19 18 80 125 214 318 342 551
368 98 12 90 -55 90 710 l0 672 83 10 c45 5 90 10 100 11 16 1 17 -41 15 -801z
m-1190 484 c27 -10 69 -34 95 -53 l46 -34 1 -788 0 -788 -42 25 c-92 54 -118
56 -685 56 l-523 0 0 800 0 800 530 0 c490 0 533 -1 578 -18z m1492 -782 l0
-800 -522 0 c-509 0 -522 1 -493 18 132 80 436 158 695 178 54 4 91 12 103 22
16 14 17 60 17 699 l0 683 100 0 100 0 0 -800z"/>
</g>
</svg>
