<?xml version="1.0" standalone="no"?>
<!DOCTYPE svg PUBLIC "-//W3C//DTD SVG 20010904//EN"
 "http://www.w3.org/TR/2001/REC-SVG-20010904/DTD/svg10.dtd">
<svg version="1.0" xmlns="http://www.w3.org/2000/svg"
 width="512.000000pt" height="512.000000pt" viewBox="0 0 512.000000 512.000000"
 preserveAspectRatio="xMidYMid meet">

<g transform="translate(0.000000,512.000000) scale(0.100000,-0.100000)"
fill="#000000" stroke="none">
<path d="M744 5110 c-145 -29 -272 -158 -303 -308 -16 -76 -16 -3929 0 -4004
34 -157 158 -277 319 -308 32 -6 337 -10 790 -10 731 0 738 0 764 21 34 27 36
79 4 109 -22 20 -31 20 -768 20 -845 0 -818 -2 -894 74 -83 82 -76 -102 -76
2096 0 2196 -7 2014 75 2095 79 80 1 75 1242 75 l1103 0 0 -238 c0 -266 5
-294 67 -389 41 -63 91 -104 170 -141 58 -27 59 -27 311 -30 l252 -3 0 -780
c0 -766 0 -779 20 -799 27 -27 81 -26 106 1 18 20 19 51 22 838 2 557 -1 824
-8 842 -6 14 -196 211 -423 437 l-413 412 -1159 -1 c-638 -1 -1179 -5 -1201
-9z m2899 -788 c-21 -2 -103 -2 -183 0 -159 4 -180 10 -240 70 -62 62 -70 93
-70 288 l0 175 265 -265 265 -265 -37 -3z"/>
<path d="M954 3829 c-22 -11 -44 -48 -44 -73 0 -7 9 -25 21 -40 20 -25 23 -26
133 -26 105 0 114 2 134 23 27 29 28 67 3 98 -18 22 -27 24 -123 26 -59 2
-112 -2 -124 -8z"/>
<path d="M1439 3829 c-53 -20 -59 -102 -10 -128 11 -6 66 -11 124 -11 95 0
105 2 125 23 27 29 28 67 3 98 -18 22 -28 24 -118 26 -54 1 -110 -2 -124 -8z"/>
<path d="M1925 3831 c-52 -22 -66 -90 -26 -123 22 -17 50 -18 452 -18 416 0
430 1 449 20 27 27 26 81 -1 106 -20 18 -44 19 -438 21 -229 1 -425 -2 -436
-6z"/>
<path d="M959 3429 c-25 -9 -49 -45 -49 -73 0 -7 9 -25 21 -40 20 -25 23 -26
133 -26 105 0 114 2 134 23 36 38 28 88 -19 112 -32 17 -178 19 -220 4z"/>
<path d="M1445 3431 c-49 -21 -64 -83 -30 -121 17 -19 30 -20 372 -20 340 0
354 1 373 20 27 27 26 81 -1 106 -20 18 -42 19 -358 21 -185 1 -345 -2 -356
-6z"/>
<path d="M2410 3433 c-34 -13 -50 -37 -50 -74 0 -68 3 -69 352 -69 295 0 309
1 328 20 27 27 26 81 -1 106 -20 18 -42 19 -318 21 -163 1 -303 -1 -311 -4z"/>
<path d="M964 3030 c-26 -10 -54 -48 -54 -71 0 -9 9 -28 21 -43 20 -25 23 -26
135 -26 101 0 116 2 134 20 38 38 22 100 -31 119 -37 13 -174 14 -205 1z"/>
<path d="M1445 3030 c-49 -19 -64 -82 -30 -120 17 -18 30 -20 172 -20 140 0
155 2 173 20 38 38 22 100 -31 119 -37 13 -254 14 -284 1z"/>
<path d="M2005 3031 c-49 -20 -64 -83 -30 -121 18 -20 29 -20 735 -20 706 0
717 0 735 20 25 28 23 76 -4 103 l-22 22 -697 2 c-383 1 -706 -2 -717 -6z"/>
<path d="M973 2633 c-27 -5 -63 -48 -63 -74 0 -10 11 -30 23 -45 22 -25 31
-28 108 -32 105 -5 159 11 173 51 15 42 -3 80 -44 94 -34 11 -151 15 -197 6z"/>
<path d="M1454 2633 c-55 -11 -76 -85 -35 -126 21 -22 24 -22 464 -25 487 -3
513 -1 531 51 15 42 -3 80 -44 94 -25 9 -156 12 -465 11 -236 0 -440 -3 -451
-5z"/>
<path d="M3312 2370 c-46 -28 -72 -76 -72 -133 0 -45 -2 -48 -37 -63 -119 -52
-207 -100 -273 -150 l-74 -56 -43 21 c-75 36 -150 25 -199 -31 -11 -12 -61
-93 -109 -178 -76 -133 -89 -161 -89 -200 0 -59 30 -108 84 -139 22 -12 40
-24 40 -25 0 -2 -5 -28 -10 -57 -14 -68 -14 -258 -1 -324 9 -46 8 -51 -11 -65
-83 -59 -117 -125 -98 -190 10 -34 130 -249 181 -326 29 -42 86 -74 132 -74
12 0 45 11 74 24 l51 24 40 -34 c61 -52 174 -119 263 -154 l79 -32 0 -47 c0
-60 27 -110 76 -139 38 -21 47 -22 246 -20 190 3 209 5 235 24 37 27 73 99 73
147 0 34 3 39 33 49 69 25 205 100 275 153 l74 55 31 -19 c73 -45 169 -29 214
35 54 78 185 316 190 347 10 64 -31 135 -103 175 -15 8 -15 19 -4 117 10 85
10 131 0 219 -12 110 -12 111 10 126 90 60 118 132 83 211 -36 82 -164 294
-198 328 -45 46 -113 54 -179 21 -25 -12 -51 -18 -57 -14 -6 4 -39 28 -73 53
-65 49 -171 107 -248 136 -43 16 -48 21 -48 49 0 55 -19 101 -55 136 l-36 35
-217 3 c-203 2 -219 1 -250 -18z m408 -198 c0 -87 13 -105 97 -133 125 -41
228 -100 334 -191 67 -57 91 -60 166 -18 29 17 55 30 57 30 5 0 168 -282 164
-284 -2 -2 -28 -17 -59 -34 -75 -42 -83 -63 -63 -155 22 -95 21 -279 0 -375
-20 -93 -12 -113 64 -159 30 -18 54 -39 52 -46 -2 -6 -38 -71 -80 -144 l-76
-132 -63 36 c-76 42 -93 40 -162 -21 -94 -84 -220 -156 -334 -192 -87 -27 -97
-41 -97 -129 l0 -75 -165 0 -165 0 0 55 c0 31 -6 71 -14 89 -12 29 -23 37 -83
56 -125 41 -227 100 -334 191 -75 65 -95 68 -162 30 -30 -17 -59 -31 -65 -31
-14 0 -164 261 -158 277 3 6 22 21 43 32 21 10 49 31 62 45 l25 26 -18 93
c-22 116 -22 253 0 363 21 105 15 122 -61 165 -30 17 -55 35 -55 40 0 8 145
267 155 278 2 2 29 -11 59 -28 78 -44 101 -41 170 19 104 91 202 148 327 189
89 29 102 46 107 132 l4 69 164 0 164 0 0 -68z"/>
<path d="M3404 1816 c-128 -31 -268 -121 -348 -223 -92 -117 -136 -244 -136
-398 0 -108 18 -184 67 -285 48 -99 177 -230 273 -276 142 -69 271 -88 409
-60 304 62 511 308 515 611 1 120 -13 183 -66 294 -77 162 -242 294 -418 335
-77 19 -224 19 -296 2z m289 -156 c123 -38 232 -131 291 -247 140 -279 -16
-611 -325 -687 -114 -28 -214 -15 -329 42 -67 33 -169 131 -200 192 -82 161
-82 331 1 476 36 63 117 145 178 180 113 65 261 82 384 44z"/>
<path d="M931 2284 c-12 -15 -21 -33 -21 -41 0 -26 28 -68 79 -117 l51 -50
-65 -67 c-36 -37 -65 -75 -65 -86 0 -25 28 -63 54 -72 37 -14 71 7 165 103
123 126 123 126 -7 257 -88 89 -101 99 -134 99 -28 0 -42 -6 -57 -26z"/>
<path d="M1337 1973 c-29 -33 -31 -68 -4 -99 l25 -29 192 0 c189 0 192 0 211
24 25 30 24 76 -1 101 -19 19 -33 20 -213 20 -172 0 -196 -2 -210 -17z"/>
</g>
</svg>
