<?xml version="1.0" standalone="no"?>
<!DOCTYPE svg PUBLIC "-//W3C//DTD SVG 20010904//EN"
 "http://www.w3.org/TR/2001/REC-SVG-20010904/DTD/svg10.dtd">
<svg version="1.0" xmlns="http://www.w3.org/2000/svg"
 width="800.000000pt" height="800.000000pt" viewBox="0 0 800.000000 800.000000"
 preserveAspectRatio="xMidYMid meet">

<g transform="translate(0.000000,800.000000) scale(0.100000,-0.100000)"
fill="#000000" stroke="none">
<path d="M2233 6544 c-52 -19 -125 -97 -141 -152 -9 -29 -12 -363 -12 -1337
l0 -1297 38 49 c21 26 57 65 80 85 l42 38 0 1209 c0 1175 1 1209 19 1232 l19
24 1101 3 1100 2 3 -398 3 -399 30 -49 c19 -30 49 -60 79 -79 l49 -30 399 -3
398 -3 2 -229 3 -230 78 71 78 72 -3 218 -3 219 -498 498 -497 497 -1163 2
c-1011 1 -1167 0 -1204 -13z m2752 -604 l340 -340 -318 0 -318 0 -24 25 -25
24 0 316 c0 173 1 315 3 315 1 0 155 -153 342 -340z"/>
<path d="M6183 5371 c-566 -383 -1087 -928 -1472 -1539 -359 -570 -645 -1267
-771 -1879 -26 -122 -25 -139 5 -168 l24 -25 411 0 411 0 24 25 c16 15 25 36
25 55 0 19 -9 40 -25 55 l-24 25 -301 0 -302 0 34 39 c18 22 78 87 133 146 83
90 99 112 98 138 0 18 -35 110 -77 205 -82 183 -81 176 -44 263 l19 46 142 43
c78 23 259 80 402 127 419 137 435 145 435 206 0 24 -34 77 -49 77 -16 0 -126
53 -116 56 208 59 389 129 565 220 165 85 200 113 200 163 0 54 -22 69 -147
97 -59 13 -112 26 -118 28 -9 3 73 44 360 181 50 24 97 52 106 62 26 30 95
191 137 318 80 240 120 469 129 740 6 214 -5 321 -38 348 -37 30 -69 21 -176
-52z m57 -233 c0 -278 -72 -640 -177 -894 l-48 -115 -330 -159 c-348 -169
-371 -184 -358 -240 10 -46 34 -58 163 -85 69 -15 127 -28 128 -30 6 -6 -90
-52 -198 -95 -129 -52 -293 -101 -445 -134 -96 -22 -125 -32 -142 -52 -51 -57
-22 -101 101 -154 49 -20 85 -40 80 -42 -10 -6 -326 -110 -478 -158 -54 -17
-100 -29 -102 -27 -6 5 53 134 151 327 327 652 762 1207 1300 1662 112 95 336
267 348 268 4 0 7 -33 7 -72z m-1960 -2877 c0 -4 -32 -38 -70 -76 l-70 -70 15
55 c9 30 28 93 42 140 l25 85 29 -64 c16 -35 29 -67 29 -70z"/>
<path d="M2705 5055 c-16 -15 -25 -36 -25 -55 0 -19 9 -40 25 -55 l24 -25
1111 0 1111 0 24 25 c16 15 25 36 25 55 0 19 -9 40 -25 55 l-24 25 -1111 0
-1111 0 -24 -25z"/>
<path d="M2705 4735 c-16 -15 -25 -36 -25 -55 0 -19 9 -40 25 -55 l24 -25
1111 0 1111 0 24 25 c16 15 25 36 25 55 0 19 -9 40 -25 55 l-24 25 -1111 0
-1111 0 -24 -25z"/>
<path d="M2705 4415 c-16 -15 -25 -36 -25 -55 0 -19 9 -40 25 -55 l24 -25
1048 0 1048 0 58 75 c31 41 57 77 57 80 0 3 -497 5 -1105 5 l-1106 0 -24 -25z"/>
<path d="M2716 4105 c-11 -8 -18 -16 -15 -18 2 -2 40 -10 84 -17 87 -13 186
-47 252 -85 l42 -25 763 0 763 1 52 79 52 80 -987 0 c-849 -1 -990 -3 -1006
-15z"/>
<path d="M2546 3904 c-244 -59 -426 -293 -426 -549 0 -300 258 -555 560 -555
305 0 560 255 560 560 0 359 -344 629 -694 544z m237 -159 c115 -30 206 -108
261 -225 28 -59 31 -74 31 -161 0 -90 -2 -99 -37 -171 -45 -91 -103 -147 -196
-191 -61 -29 -76 -32 -162 -32 -86 0 -101 3 -162 32 -93 44 -151 100 -196 191
-35 72 -37 81 -37 171 0 87 3 102 32 163 40 85 97 147 172 186 98 53 190 64
294 37z"/>
<path d="M3290 3739 c22 -34 42 -70 45 -80 6 -18 24 -19 543 -19 l537 0 43 80
43 80 -625 0 -626 0 40 -61z"/>
<path d="M3394 3449 c3 -17 6 -53 6 -80 l0 -49 423 0 423 0 37 75 c20 42 37
78 37 80 0 3 -210 5 -466 5 l-466 0 6 -31z"/>
<path d="M5531 3221 l-44 -18 -1 -69 c-1 -51 -7 -80 -23 -112 l-23 -43 0 -665
0 -665 -25 -24 -24 -25 -741 0 c-622 0 -740 -2 -740 -14 0 -7 -15 -43 -33 -80
l-34 -66 776 0 c535 0 788 4 816 11 54 15 139 100 154 154 17 61 15 1635 -1
1634 -7 0 -33 -8 -57 -18z"/>
<path d="M2039 2847 c-190 -65 -333 -213 -406 -422 l-28 -80 -3 -346 c-2 -228
0 -361 7 -387 7 -23 31 -62 56 -90 78 -87 17 -82 1014 -82 601 0 889 4 916 11
54 15 140 103 155 159 8 29 10 153 8 389 l-3 346 -28 80 c-64 183 -174 312
-332 391 -38 19 -96 40 -127 46 l-58 12 -37 -36 c-21 -20 -64 -54 -95 -76
l-58 -39 109 -5 c99 -4 114 -7 182 -40 126 -61 204 -147 257 -284 26 -69 26
-70 30 -406 l3 -337 -25 -26 -25 -25 -871 0 -871 0 -25 25 -25 26 3 337 c4
318 5 340 26 396 33 88 69 145 132 206 94 92 191 129 339 130 l84 0 -69 49
c-38 27 -80 60 -93 75 -30 32 -56 32 -142 3z"/>
<path d="M2625 2535 c-50 -49 -15 -135 55 -135 41 0 80 39 80 80 0 41 -39 80
-80 80 -19 0 -40 -9 -55 -25z"/>
<path d="M2625 2215 c-50 -49 -15 -135 55 -135 41 0 80 39 80 80 0 41 -39 80
-80 80 -19 0 -40 -9 -55 -25z"/>
</g>
</svg>
