<?xml version="1.0" standalone="no"?>
<!DOCTYPE svg PUBLIC "-//W3C//DTD SVG 20010904//EN"
 "http://www.w3.org/TR/2001/REC-SVG-20010904/DTD/svg10.dtd">
<svg version="1.0" xmlns="http://www.w3.org/2000/svg"
 width="225.000000pt" height="225.000000pt" viewBox="0 0 225.000000 225.000000"
 preserveAspectRatio="xMidYMid meet">

<g transform="translate(0.000000,225.000000) scale(0.100000,-0.100000)"
fill="#000000" stroke="none">
<path d="M652 1914 c-78 -47 -82 -63 -82 -373 l0 -269 40 10 40 10 0 250 c0
152 4 257 10 269 24 43 56 49 283 49 l215 0 4 -162 c4 -176 10 -201 67 -261
57 -62 90 -71 269 -75 l162 -4 0 -369 0 -370 -26 -24 -27 -25 -254 0 -253 0
-43 -45 -44 -45 281 0 c167 0 296 4 319 11 52 14 114 72 127 117 6 22 10 199
10 440 l0 404 -237 244 -236 244 -291 0 -291 0 -43 -26z m847 -462 c-114 -2
-133 0 -170 18 -65 34 -79 76 -78 240 l0 135 189 -195 188 -195 -129 -3z"/>
<path d="M695 1225 c-5 -2 -27 -6 -47 -10 -31 -5 -38 -10 -38 -30 0 -33 -81
-81 -111 -65 -23 13 -37 5 -71 -43 -18 -25 -19 -33 -9 -49 20 -32 -6 -108 -41
-122 -26 -10 -28 -15 -28 -63 0 -48 3 -54 25 -63 38 -14 61 -88 41 -131 -5
-12 3 -28 25 -53 27 -31 36 -36 60 -31 35 8 109 -36 109 -65 0 -25 9 -30 70
-37 41 -5 50 -3 50 9 0 23 20 35 68 41 29 3 47 1 56 -9 20 -20 36 -18 79 11
31 22 36 30 31 51 -5 20 0 33 27 60 18 19 43 34 56 34 23 0 44 30 57 82 5 21
2 30 -14 38 -28 15 -28 95 0 125 20 22 20 23 3 71 -16 43 -22 49 -44 46 -35
-4 -92 66 -83 102 5 21 -1 28 -41 51 -43 26 -47 26 -65 10 -27 -24 -105 -11
-127 21 -15 24 -19 26 -38 19z m114 -131 c107 -31 183 -134 184 -247 1 -153
-111 -267 -263 -267 -188 0 -315 185 -247 360 24 63 93 128 159 151 66 23 100
23 167 3z"/>
<path d="M680 979 c-148 -59 -111 -279 48 -279 88 0 142 55 142 147 0 41 -5
58 -27 84 -44 52 -106 70 -163 48z m90 -99 c11 -11 20 -26 20 -33 0 -20 -28
-54 -50 -60 -25 -6 -70 28 -70 54 0 25 35 59 60 59 11 0 29 -9 40 -20z"/>
</g>
</svg>
