<?xml version="1.0" standalone="no"?>
<!DOCTYPE svg PUBLIC "-//W3C//DTD SVG 20010904//EN"
 "http://www.w3.org/TR/2001/REC-SVG-20010904/DTD/svg10.dtd">
<svg version="1.0" xmlns="http://www.w3.org/2000/svg"
 width="360.000000pt" height="360.000000pt" viewBox="0 0 360.000000 360.000000"
 preserveAspectRatio="xMidYMid meet">

<g transform="translate(0.000000,360.000000) scale(0.100000,-0.100000)"
fill="#000000" stroke="none">
<path d="M941 3063 c-24 -9 -63 -35 -86 -58 -80 -79 -76 -25 -73 -966 l3 -836
30 -49 c34 -55 111 -107 172 -118 21 -3 506 -6 1079 -6 1139 0 1101 -2 1174
59 20 16 49 53 65 82 l30 54 0 830 0 830 -24 48 c-13 26 -41 63 -63 82 -81 69
-17 65 -1197 64 -939 0 -1071 -2 -1110 -16z m2207 -133 c63 -39 62 -28 60
-682 l-3 -592 -292 341 c-311 363 -323 373 -410 373 -90 0 -103 -14 -625 -645
-16 -19 -19 -17 -125 86 -93 90 -115 107 -157 118 -39 9 -61 10 -100 0 -48
-11 -65 -25 -316 -275 -146 -145 -269 -264 -273 -264 -4 0 -6 332 -5 738 3
704 4 738 22 765 40 59 -23 56 1131 57 1046 0 1060 0 1093 -20z m-606 -702 c9
-7 163 -184 342 -393 l326 -380 0 -93 c0 -108 -16 -154 -64 -183 -30 -18 -68
-19 -1096 -17 -1047 3 -1065 3 -1092 23 -15 11 -28 25 -28 30 0 6 132 142 293
303 248 247 297 292 322 292 23 0 52 -24 159 -129 126 -124 140 -135 178 -132
9 0 141 151 294 334 152 182 283 338 292 345 9 6 25 12 37 12 12 0 29 -6 37
-12z"/>
<path d="M1370 2690 c-82 -17 -135 -55 -178 -129 -23 -39 -27 -57 -27 -121 1
-88 22 -138 81 -190 52 -45 99 -62 169 -63 105 0 185 51 231 148 87 182 -80
396 -276 355z m94 -134 c51 -21 76 -60 76 -118 0 -43 -5 -55 -33 -83 -41 -41
-90 -52 -140 -31 -98 40 -101 189 -4 231 41 18 60 18 101 1z"/>
<path d="M536 2068 c-26 -41 -268 -958 -269 -1018 -1 -91 55 -184 134 -226 53
-27 2041 -556 2094 -557 28 0 68 5 89 12 43 15 120 81 141 120 7 15 38 120 69
235 49 183 55 211 43 235 -16 33 -74 42 -99 14 -8 -10 -39 -108 -69 -218 -46
-174 -57 -204 -85 -232 -17 -17 -43 -35 -58 -39 -20 -5 -303 67 -1043 265
-559 150 -1026 279 -1039 287 -24 16 -54 71 -54 98 0 14 45 187 220 838 41
150 42 158 26 183 -22 34 -79 35 -100 3z"/>
</g>
</svg>
