<?xml version="1.0" standalone="no"?>
<!DOCTYPE svg PUBLIC "-//W3C//DTD SVG 20010904//EN"
 "http://www.w3.org/TR/2001/REC-SVG-20010904/DTD/svg10.dtd">
<svg version="1.0" xmlns="http://www.w3.org/2000/svg"
 width="400.000000pt" height="400.000000pt" viewBox="0 0 400.000000 400.000000"
 preserveAspectRatio="xMidYMid meet">

<g transform="translate(0.000000,400.000000) scale(0.100000,-0.100000)"
fill="#000000" stroke="none">
<path d="M1128 2771 l-33 -29 -3 -531 c-2 -470 -1 -535 13 -562 29 -56 52 -59
390 -59 l305 0 0 -93 0 -93 -56 -12 c-30 -6 -71 -21 -90 -33 -29 -18 -35 -26
-32 -52 4 -39 36 -62 118 -84 84 -23 412 -25 505 -4 175 40 194 123 37 167
-31 8 -63 17 -69 19 -9 3 -13 31 -13 95 l0 90 305 0 c338 0 361 3 390 59 14
27 15 92 13 562 l-3 531 -33 29 -32 29 -840 0 -840 0 -32 -29z m1708 -35 c18
-14 19 -32 22 -445 l3 -431 -861 0 -861 0 3 431 c3 413 4 431 22 445 29 21
1643 21 1672 0z m24 -989 c0 -31 -6 -61 -16 -75 l-15 -22 -829 0 -829 0 -15
22 c-10 14 -16 44 -16 75 l0 53 860 0 860 0 0 -53z m-710 -244 l0 -88 -150 0
-150 0 0 88 0 87 150 0 150 0 0 -87z m123 -168 c32 -10 56 -23 54 -29 -7 -21
-141 -47 -272 -52 -137 -6 -287 10 -355 38 l-35 15 23 12 c55 29 156 40 342
37 142 -3 199 -8 243 -21z"/>
<path d="M2124 2670 c-12 -4 -30 -20 -42 -34 -13 -17 -30 -26 -49 -26 -27 0
-31 -6 -67 -90 -38 -90 -39 -110 -7 -110 13 0 27 21 49 73 16 39 37 73 45 75
8 2 27 -8 41 -22 41 -42 106 -34 132 16 22 42 10 85 -29 109 -35 21 -42 22
-73 9z m54 -62 c14 -14 -2 -48 -22 -48 -20 0 -37 25 -30 44 7 19 35 21 52 4z"/>
<path d="M1507 2609 c-8 -11 -13 -28 -11 -37 2 -9 0 -24 -5 -32 -9 -12 -15
-10 -39 13 -15 15 -31 27 -35 27 -16 0 -107 -94 -107 -110 0 -9 9 -25 20 -35
30 -27 25 -45 -13 -45 -47 0 -57 -15 -57 -87 0 -68 12 -83 64 -83 31 0 34 -20
6 -45 -30 -27 -25 -46 23 -93 48 -47 70 -52 103 -21 26 25 42 19 39 -13 -5
-50 10 -59 88 -56 l72 3 6 38 c8 50 15 54 42 29 35 -33 60 -27 106 23 46 50
50 64 21 90 -29 26 -25 45 9 45 45 0 61 23 61 89 0 65 -11 81 -55 81 -44 0
-48 8 -20 42 14 16 25 35 25 42 0 14 -91 106 -105 106 -5 0 -22 -12 -37 -27
-24 -23 -30 -25 -38 -13 -5 8 -10 27 -10 42 0 35 -25 48 -89 48 -39 0 -53 -4
-64 -21z m103 -68 c0 -30 9 -40 52 -59 24 -10 31 -8 56 13 l29 24 22 -23 21
-23 -21 -19 c-16 -14 -20 -26 -15 -52 7 -47 23 -62 62 -62 31 0 34 -3 34 -30
0 -21 -5 -30 -17 -31 -10 -1 -22 -2 -28 -4 -5 -1 -15 -3 -21 -3 -13 -2 -34
-46 -34 -71 0 -10 9 -26 20 -36 l20 -18 -22 -24 -22 -23 -22 21 c-41 39 -114
6 -114 -52 0 -26 -3 -29 -30 -29 -26 0 -30 4 -30 28 0 56 -68 87 -112 53 l-25
-20 -22 23 -21 23 20 18 c41 37 16 102 -42 111 -34 6 -38 10 -38 35 0 26 3 29
35 29 28 0 37 5 50 30 20 39 19 63 -5 85 l-20 18 22 24 22 23 22 -21 c18 -17
30 -20 55 -15 44 8 59 23 59 57 0 26 4 29 30 29 26 0 30 -3 30 -29z"/>
<path d="M1534 2406 c-19 -8 -38 -28 -48 -51 -47 -97 65 -193 154 -133 64 44
65 132 1 175 -39 26 -63 28 -107 9z m70 -48 c44 -19 43 -73 -2 -97 -52 -28
-99 59 -50 93 27 19 21 19 52 4z"/>
<path d="M2346 2594 c-13 -12 -16 -40 -16 -138 0 -81 4 -126 12 -134 8 -8 67
-12 199 -12 157 0 190 3 203 16 13 12 16 39 16 130 0 161 10 154 -219 154
-150 0 -182 -3 -195 -16z m354 -134 l0 -100 -160 0 -160 0 0 95 0 94 158 4
c86 1 158 4 160 5 1 1 2 -43 2 -98z"/>
<path d="M2110 2371 c-24 -26 -35 -30 -91 -33 -56 -3 -64 -5 -64 -23 0 -18 8
-20 65 -23 55 -3 68 -7 85 -28 50 -62 149 -28 149 51 0 78 -90 113 -144 56z
m74 -27 c21 -8 21 -50 0 -58 -32 -12 -57 27 -32 52 14 14 12 14 32 6z"/>
<path d="M1935 2219 c-8 -12 62 -180 79 -191 6 -4 21 -8 34 -8 12 0 25 -7 29
-15 9 -25 61 -47 94 -40 34 8 69 48 69 81 0 12 -12 36 -26 53 -34 40 -83 43
-120 5 -14 -14 -33 -24 -41 -22 -8 2 -29 36 -45 76 -22 51 -36 72 -49 72 -10
0 -21 -5 -24 -11z m245 -158 c7 -15 6 -23 -6 -35 -12 -12 -20 -13 -35 -6 -22
12 -25 30 -7 48 18 18 36 15 48 -7z"/>
<path d="M2316 2174 c-3 -9 -4 -20 0 -25 3 -5 106 -9 230 -9 l225 0 -3 23 c-3
22 -3 22 -224 25 -196 2 -222 1 -228 -14z"/>
<path d="M2316 2041 c-4 -5 -3 -16 0 -25 6 -15 32 -16 228 -14 221 3 221 3
224 26 l3 22 -225 0 c-124 0 -227 -4 -230 -9z"/>
</g>
</svg>
