<?xml version="1.0" standalone="no"?>
<!DOCTYPE svg PUBLIC "-//W3C//DTD SVG 20010904//EN"
 "http://www.w3.org/TR/2001/REC-SVG-20010904/DTD/svg10.dtd">
<svg version="1.0" xmlns="http://www.w3.org/2000/svg"
 width="225.000000pt" height="225.000000pt" viewBox="0 0 225.000000 225.000000"
 preserveAspectRatio="xMidYMid meet">

<g transform="translate(0.000000,225.000000) scale(0.100000,-0.100000)"
fill="#000000" stroke="none">
<path d="M998 2053 c-20 -2 -41 -10 -47 -17 -5 -6 -11 -47 -13 -89 l-3 -78
-68 -24 c-37 -13 -84 -33 -104 -45 l-36 -21 -56 55 c-31 31 -63 56 -71 56 -40
0 -240 -200 -240 -240 0 -8 25 -40 56 -71 l55 -56 -21 -36 c-12 -20 -32 -67
-45 -104 l-24 -68 -80 -3 c-58 -2 -83 -7 -93 -19 -10 -12 -13 -56 -13 -168 0
-112 3 -156 13 -168 10 -12 35 -17 93 -19 l80 -3 24 -68 c13 -37 33 -84 45
-104 l21 -36 -55 -56 c-31 -31 -56 -63 -56 -71 0 -40 200 -240 240 -240 8 0
40 25 71 56 l56 55 36 -21 c20 -12 67 -32 104 -45 l68 -24 3 -80 c2 -58 7 -83
19 -93 23 -19 313 -19 336 0 12 10 17 35 19 93 l3 80 68 24 c37 13 84 33 104
45 l36 21 56 -55 c31 -31 63 -56 71 -56 40 0 240 200 240 240 0 8 -25 40 -56
71 l-55 56 21 36 c12 20 32 67 45 104 l24 68 80 3 c58 2 83 7 93 19 19 23 19
313 0 336 -10 12 -35 17 -93 19 l-80 3 -24 68 c-13 37 -33 84 -45 104 l-21 36
55 56 c31 31 56 63 56 71 0 40 -200 240 -240 240 -8 0 -40 -25 -71 -56 l-56
-55 -36 21 c-20 12 -67 32 -104 45 l-68 24 -3 80 c-2 54 -7 83 -17 91 -15 13
-227 22 -297 13z m229 -71 c7 -5 13 -39 15 -86 l3 -79 82 -27 c45 -15 106 -41
137 -59 31 -17 61 -31 67 -31 6 0 37 25 69 56 l59 56 76 -77 77 -76 -56 -59
c-31 -32 -56 -63 -56 -69 0 -6 14 -36 31 -67 18 -31 44 -92 59 -137 l27 -82
79 -3 c47 -2 81 -8 86 -15 10 -16 10 -188 0 -204 -5 -7 -39 -13 -86 -15 l-79
-3 -27 -82 c-15 -45 -41 -106 -59 -137 -17 -31 -31 -61 -31 -67 0 -6 25 -37
56 -69 l56 -59 -77 -76 -76 -77 -59 56 c-32 31 -63 56 -69 56 -6 0 -36 -14
-67 -31 -31 -18 -92 -44 -137 -59 l-82 -27 -3 -79 c-2 -47 -8 -81 -15 -86 -16
-10 -188 -10 -204 0 -7 5 -13 39 -15 86 l-3 79 -82 27 c-45 15 -106 41 -137
59 -31 17 -61 31 -67 31 -6 0 -37 -25 -69 -56 l-59 -56 -76 77 -77 76 56 59
c31 32 56 63 56 69 0 6 -14 36 -31 67 -18 31 -44 92 -59 137 l-27 82 -79 3
c-47 2 -81 8 -86 15 -4 7 -8 53 -8 102 0 50 4 95 8 102 5 7 39 13 86 15 l79 3
27 82 c15 45 41 106 59 137 17 31 31 61 31 67 0 6 -25 37 -56 69 l-56 59 77
76 76 77 59 -56 c32 -31 63 -56 69 -56 6 0 36 14 67 31 31 18 92 44 137 59
l82 27 3 79 c2 47 8 81 15 86 7 4 53 8 102 8 50 0 95 -4 102 -8z"/>
<path d="M1033 1660 c-106 -19 -220 -80 -296 -158 -27 -28 -38 -47 -35 -63 5
-41 35 -34 98 25 136 125 308 163 477 105 72 -24 116 -52 180 -112 56 -52 86
-58 91 -18 7 48 -129 156 -247 197 -77 26 -194 36 -268 24z"/>
<path d="M664 1277 c-3 -8 -4 -52 -2 -98 l3 -84 83 -3 82 -3 0 -29 0 -30 -72
0 c-84 0 -101 -8 -96 -41 3 -23 6 -24 112 -27 81 -2 112 1 118 10 12 21 10
162 -4 176 -7 7 -42 12 -85 12 l-73 0 0 30 0 30 74 0 c80 0 103 13 91 50 -6
19 -14 20 -116 20 -82 0 -111 -3 -115 -13z"/>
<path d="M1022 1278 c-17 -17 -17 -289 0 -306 8 -8 46 -12 104 -12 102 0 125
11 104 49 -9 18 -20 21 -75 21 l-65 0 0 30 c0 29 2 30 44 30 86 0 89 62 2 68
-44 3 -46 5 -46 33 l0 29 65 0 c55 0 66 3 75 21 21 38 -2 49 -104 49 -58 0
-96 -4 -104 -12z"/>
<path d="M1356 1274 c-9 -23 -7 -287 2 -302 6 -9 37 -12 118 -10 l109 3 0 160
0 160 -111 3 c-95 2 -113 0 -118 -14z m164 -149 l0 -95 -50 0 -50 0 0 95 0 95
50 0 50 0 0 -95z"/>
<path d="M707 833 c-20 -19 -3 -54 47 -101 113 -103 220 -144 371 -145 82 0
113 4 171 25 125 44 259 150 252 199 -5 41 -35 34 -98 -25 -195 -180 -481
-175 -665 13 -37 39 -63 50 -78 34z"/>
</g>
</svg>
