<?xml version="1.0" standalone="no"?>
<!DOCTYPE svg PUBLIC "-//W3C//DTD SVG 20010904//EN"
 "http://www.w3.org/TR/2001/REC-SVG-20010904/DTD/svg10.dtd">
<svg version="1.0" xmlns="http://www.w3.org/2000/svg"
 width="256.000000pt" height="256.000000pt" viewBox="0 0 256.000000 256.000000"
 preserveAspectRatio="xMidYMid meet">

<g transform="translate(0.000000,256.000000) scale(0.100000,-0.100000)"
fill="#000000" stroke="none">
<path d="M1245 2366 c-15 -11 -20 -29 -23 -82 -4 -89 11 -119 58 -119 47 0 62
30 58 119 -4 70 -19 96 -58 96 -9 0 -25 -6 -35 -14z"/>
<path d="M782 2274 c-28 -20 -28 -54 2 -124 25 -57 54 -81 88 -72 38 9 44 46
18 111 -13 33 -29 66 -34 74 -18 23 -50 28 -74 11z"/>
<path d="M1728 2283 c-16 -4 -61 -89 -74 -137 -12 -49 32 -85 76 -62 25 12 69
107 70 148 0 24 -32 61 -50 57 -3 -1 -12 -3 -22 -6z"/>
<path d="M377 2002 c-10 -10 -17 -28 -17 -39 0 -23 111 -133 134 -133 22 0 56
36 56 58 0 25 -111 132 -136 132 -12 0 -28 -8 -37 -18z"/>
<path d="M2067 1962 c-31 -32 -57 -65 -57 -75 0 -21 35 -57 56 -57 25 0 134
110 134 135 0 26 -29 55 -56 55 -11 0 -45 -26 -77 -58z"/>
<path d="M1200 1929 c-360 -32 -660 -301 -737 -663 -21 -102 -13 -306 17 -401
86 -272 295 -480 570 -567 65 -20 95 -23 230 -23 135 0 165 3 230 23 275 87
484 295 570 567 30 95 38 299 17 401 -90 421 -468 700 -897 663z m138 -260
c-3 -135 -5 -152 -22 -165 -11 -8 -27 -14 -36 -14 -9 0 -25 6 -36 14 -17 13
-19 30 -22 165 l-3 151 61 0 61 0 -3 -151z m-228 5 c0 -159 11 -203 61 -248
66 -60 152 -60 218 0 50 45 61 89 61 250 l0 126 28 -6 c50 -12 190 -84 239
-123 174 -138 271 -320 281 -529 8 -169 -31 -316 -118 -444 -290 -427 -910
-427 -1200 0 -87 128 -126 275 -118 444 14 288 203 537 488 642 62 22 60 25
60 -112z"/>
<path d="M104 1594 c-16 -24 -16 -27 2 -51 23 -31 130 -76 162 -68 32 8 47 51
28 80 -15 23 -112 65 -152 65 -14 0 -30 -10 -40 -26z"/>
<path d="M2332 1598 c-65 -26 -87 -54 -73 -91 6 -15 21 -29 33 -32 32 -8 139
37 162 68 18 24 18 27 2 51 -20 32 -51 33 -124 4z"/>
<path d="M33 1150 c-49 -20 -40 -83 14 -101 41 -13 137 -6 159 12 23 19 14 71
-16 86 -28 14 -124 16 -157 3z"/>
<path d="M2370 1147 c-30 -15 -39 -67 -16 -86 22 -18 118 -25 159 -12 56 19
62 82 10 102 -35 13 -123 11 -153 -4z"/>
<path d="M171 702 c-73 -32 -92 -59 -66 -98 19 -30 47 -30 116 -3 85 34 108
70 69 109 -26 26 -42 25 -119 -8z"/>
<path d="M2270 710 c-39 -39 -16 -75 69 -109 70 -27 97 -27 116 3 26 39 4 69
-71 100 -77 31 -88 32 -114 6z"/>
<path d="M417 312 c-60 -61 -69 -88 -39 -115 31 -28 54 -20 114 40 62 62 69
82 38 113 -31 31 -51 24 -113 -38z"/>
<path d="M2030 350 c-11 -11 -20 -27 -20 -36 0 -25 110 -134 135 -134 26 0 55
29 55 56 0 24 -109 134 -133 134 -9 0 -26 -9 -37 -20z"/>
</g>
</svg>
