<?xml version="1.0" standalone="no"?>
<!DOCTYPE svg PUBLIC "-//W3C//DTD SVG 20010904//EN"
 "http://www.w3.org/TR/2001/REC-SVG-20010904/DTD/svg10.dtd">
<svg version="1.0" xmlns="http://www.w3.org/2000/svg"
 width="200.000000pt" height="200.000000pt" viewBox="0 0 200.000000 200.000000"
 preserveAspectRatio="xMidYMid meet">

<g transform="translate(0.000000,200.000000) scale(0.100000,-0.100000)"
fill="#000000" stroke="none">
<path d="M268 1589 c-24 -13 -23 -46 1 -59 13 -6 162 -10 416 -10 254 0 403 4
416 10 10 6 19 19 19 30 0 11 -9 24 -19 30 -27 14 -809 13 -833 -1z"/>
<path d="M1155 1326 c-115 -29 -203 -91 -265 -188 -144 -222 -56 -517 187
-631 55 -25 83 -32 154 -35 102 -5 167 11 251 61 l56 34 74 -74 c77 -79 105
-97 126 -81 24 20 11 44 -69 124 l-80 81 35 59 c83 139 86 295 8 438 -90 166
-295 257 -477 212z m167 -67 c118 -25 210 -98 261 -207 27 -57 31 -77 31 -147
-1 -147 -72 -263 -202 -327 -60 -30 -75 -33 -157 -33 -78 0 -98 4 -152 29 -76
35 -144 104 -181 184 -23 49 -27 70 -27 147 0 77 4 98 26 145 37 77 88 131
158 169 90 47 155 58 243 40z"/>
<path d="M253 1204 c-3 -9 -2 -24 4 -33 9 -14 39 -16 214 -19 180 -2 205 -1
216 14 9 12 9 22 2 35 -9 18 -25 19 -220 19 -185 0 -210 -2 -216 -16z"/>
<path d="M260 835 c-6 -8 -10 -22 -8 -32 3 -17 18 -18 187 -18 161 0 185 2
194 17 8 12 7 21 -2 32 -19 23 -352 24 -371 1z"/>
<path d="M268 469 c-24 -13 -23 -46 1 -59 26 -14 506 -14 532 0 25 14 25 46 0
60 -26 13 -510 13 -533 -1z"/>
</g>
</svg>
