<?xml version="1.0" standalone="no"?>
<!DOCTYPE svg PUBLIC "-//W3C//DTD SVG 20010904//EN"
 "http://www.w3.org/TR/2001/REC-SVG-20010904/DTD/svg10.dtd">
<svg version="1.0" xmlns="http://www.w3.org/2000/svg"
 width="440.000000pt" height="300.000000pt" viewBox="0 0 440.000000 300.000000"
 preserveAspectRatio="xMidYMid meet">

<g transform="translate(0.000000,300.000000) scale(0.100000,-0.100000)"
fill="#000000" stroke="none">
<path d="M1960 2285 c-112 -112 -208 -212 -213 -220 -12 -22 18 -65 46 -65 15
0 72 50 184 162 90 90 163 156 163 148 0 -8 1 -177 3 -375 l2 -360 53 -3 52
-3 0 378 0 378 168 -168 c113 -113 174 -167 189 -167 25 0 53 25 53 48 0 9
-98 114 -217 234 -189 190 -221 218 -248 218 -27 0 -58 -27 -235 -205z"/>
<path d="M1140 1873 c-40 -14 -40 -14 -40 -670 0 -620 0 -633 20 -653 20 -20
33 -20 1080 -20 1047 0 1060 0 1080 20 20 20 20 33 20 653 0 531 -2 636 -14
653 -14 18 -31 19 -385 22 l-371 3 0 -36 0 -35 350 0 350 0 0 -605 0 -605
-1030 0 -1030 0 0 605 0 605 355 0 355 0 0 35 0 35 -362 -1 c-200 0 -370 -3
-378 -6z"/>
<path d="M1460 1400 l0 -50 720 0 720 0 0 50 0 50 -720 0 -720 0 0 -50z"/>
<path d="M1460 1190 l0 -50 720 0 720 0 0 50 0 50 -720 0 -720 0 0 -50z"/>
<path d="M1460 975 l0 -55 718 2 717 3 0 50 0 50 -717 3 -718 2 0 -55z"/>
</g>
</svg>
