<?xml version="1.0" standalone="no"?>
<!DOCTYPE svg PUBLIC "-//W3C//DTD SVG 20010904//EN"
 "http://www.w3.org/TR/2001/REC-SVG-20010904/DTD/svg10.dtd">
<svg version="1.0" xmlns="http://www.w3.org/2000/svg"
 width="225.000000pt" height="225.000000pt" viewBox="0 0 225.000000 225.000000"
 preserveAspectRatio="xMidYMid meet">

<g transform="translate(0.000000,225.000000) scale(0.100000,-0.100000)"
fill="#000000" stroke="none">
<path d="M823 2026 c-108 -35 -205 -124 -245 -224 -34 -86 -32 -216 5 -295 34
-74 75 -126 127 -162 l42 -29 -51 -17 c-177 -60 -321 -190 -406 -364 -48 -97
-78 -221 -73 -296 l3 -44 488 -3 c476 -2 487 -3 487 -22 0 -23 21 -35 73 -45
21 -4 41 -14 44 -23 4 -8 -6 -37 -21 -64 l-27 -48 55 -58 55 -57 51 28 c28 16
56 27 63 24 6 -2 19 -28 27 -58 l16 -54 76 -3 c85 -3 90 0 103 70 9 48 28 54
81 23 23 -14 47 -25 53 -25 14 0 89 68 102 92 8 14 4 30 -17 68 -15 27 -24 55
-21 63 3 8 23 18 44 22 71 13 74 17 71 102 l-3 77 -49 12 c-72 19 -76 26 -41
89 l29 55 -49 50 c-27 27 -57 50 -67 50 -10 0 -36 -11 -57 -24 -48 -30 -64
-21 -81 44 -7 25 -17 48 -24 52 -17 11 -131 9 -142 -2 -7 -7 -25 8 -54 43 -90
107 -200 184 -321 226 l-51 17 42 29 c124 86 187 265 145 411 -32 113 -109
204 -214 252 -68 31 -200 40 -268 18z m220 -72 c61 -21 141 -93 175 -158 23
-44 27 -63 27 -137 0 -75 -4 -92 -30 -144 -125 -245 -478 -224 -576 34 -28 76
-23 175 14 247 32 62 112 137 170 157 56 20 162 21 220 1z m94 -717 c84 -29
137 -58 210 -117 53 -42 153 -164 153 -187 0 -19 -31 -16 -65 7 -46 31 -67 25
-119 -30 l-47 -50 27 -50 c14 -27 24 -56 21 -64 -3 -8 -27 -21 -54 -28 -32 -9
-51 -21 -58 -36 l-10 -22 -454 0 -454 0 7 50 c31 232 202 444 422 521 93 33
132 38 244 35 79 -3 123 -10 177 -29z m517 -315 c8 -38 15 -47 53 -65 l44 -21
45 23 c42 23 45 23 64 6 19 -17 19 -18 -6 -60 l-24 -42 19 -45 c17 -40 24 -46
65 -57 41 -10 46 -14 46 -40 0 -25 -5 -29 -42 -37 -37 -8 -46 -15 -68 -55
l-24 -47 28 -42 c28 -42 28 -43 8 -62 -20 -20 -20 -20 -64 6 l-44 26 -45 -23
c-38 -19 -45 -28 -53 -65 -8 -40 -11 -43 -40 -40 -27 3 -31 8 -41 47 -9 39
-15 45 -55 61 -45 18 -45 18 -88 -7 -42 -24 -44 -24 -63 -7 -19 17 -19 18 7
61 25 43 25 44 8 88 -14 37 -23 46 -53 55 -20 5 -42 10 -48 10 -8 0 -13 13
-13 30 0 27 4 31 45 41 38 10 49 18 65 50 25 48 25 51 -4 98 -25 39 -25 39 -5
57 19 17 21 17 63 -6 40 -21 47 -22 77 -10 50 20 56 26 68 76 11 41 14 45 39
42 23 -3 28 -9 36 -46z"/>
<path d="M1560 762 c-59 -26 -90 -73 -90 -135 0 -57 19 -98 60 -127 123 -88
283 44 222 183 -25 56 -73 87 -133 86 -24 0 -51 -3 -59 -7z m115 -87 c14 -13
25 -36 25 -50 0 -34 -50 -85 -83 -85 -32 0 -73 33 -81 65 -7 27 15 80 36 88
34 14 80 6 103 -18z"/>
</g>
</svg>
