<svg width="18" height="13" viewBox="0 0 18 13" fill="none" xmlns="http://www.w3.org/2000/svg">
<path fill-rule="evenodd" clip-rule="evenodd" d="M8.625 1.5C6.015 1.5 3.8835 3.555 3.756 6.1275C3.7395 6.4575 3.5115 6.735 3.192 6.8175C2.2185 7.065 1.5 7.95 1.5 9C1.5 10.245 2.50725 11.25 3.75 11.25H13.125C14.9888 11.25 16.5 9.7425 16.5 7.875C16.5 6.15 15.2017 4.725 13.5278 4.5225C13.2817 4.4925 13.0658 4.3425 12.9517 4.125C12.1372 2.565 10.5045 1.5 8.625 1.5ZM2.304 5.5425C2.71425 2.415 5.38725 0 8.625 0C10.9478 0 12.9795 1.245 14.0933 3.0975C16.3223 3.5475 18 5.5125 18 7.875C18 10.5675 15.8175 12.75 13.125 12.75H3.75C1.67925 12.75 0 11.07 0 9C0 7.44 0.95175 6.105 2.304 5.5425Z" fill="#131313"/>
</svg>
